External Loads File
version=1
nRows=62
nColumns=13
Range=5.000000e-03-10 seconds
endheader
time 	forceRightX 	forceRightY 	forceRightZ 	pointRightX 	pointRightY 	pointRightZ 	forceLeftX 	forceLeftY 	forceLeftZ 	pointLeftX 	pointLeftY 	pointLeftZ 		
7.505000 32.410979 -88.290165 -0.000000 0.121123 0.234059 -0.163379 -229.728038 509.991573 -0.000000 0.383289 0.396186 -0.416006
7.510000 28.344754 -84.111660 -0.000000 0.117598 0.243433 -0.163503 -243.980276 560.351476 -0.000000 0.386364 0.386349 -0.415835
7.515000 26.085048 -76.620976 -0.000000 0.114628 0.253149 -0.163651 -255.849222 602.986332 -0.000000 0.389015 0.376317 -0.415924
7.520000 25.340077 -66.645980 -0.000000 0.112275 0.262969 -0.163583 -265.150642 637.442146 -0.000000 0.391242 0.365978 -0.415838
7.525000 25.745622 -55.004926 -0.000000 0.110162 0.273146 -0.164013 -270.949915 664.301630 -0.000000 0.393149 0.355373 -0.415848
7.530000 27.181311 -42.397029 -0.000000 0.108822 0.283480 -0.164094 -274.372690 683.908958 -0.000000 0.394584 0.344629 -0.415968
7.535000 29.433146 -29.502365 -0.000000 0.108049 0.293974 -0.164246 -275.279928 697.536142 -0.000000 0.395745 0.333735 -0.416322
7.540000 32.374519 -16.861331 -0.000000 0.107699 0.304614 -0.164549 -274.422770 706.273084 -0.000000 0.396159 0.322904 -0.415991
7.545000 35.858047 -4.943276 -0.000000 0.107863 0.315271 -0.164811 -271.759244 711.507358 -0.000000 0.396216 0.312030 -0.415839
7.550000 39.758745 5.817155 -0.000000 0.108600 0.326235 -0.165146 -266.274639 714.840184 -0.000000 0.395748 0.301018 -0.415791
7.555000 43.940513 15.195008 -0.000000 0.109994 0.337086 -0.165495 -259.349155 716.734015 -0.000000 0.394845 0.290143 -0.416102
7.560000 48.233929 22.904864 -0.000000 0.111917 0.348017 -0.165817 -249.643687 718.360490 -0.000000 0.393020 0.279336 -0.415701
7.565000 52.387907 28.860303 -0.000000 0.114385 0.358893 -0.166279 -237.368523 720.012904 -0.000000 0.390689 0.268711 -0.415658
7.570000 56.161857 33.017019 -0.000000 0.117497 0.369992 -0.166624 -221.352263 722.245990 -0.000000 0.387834 0.258173 -0.415635
7.575000 59.188034 35.721176 -0.000000 0.121201 0.380329 -0.167066 -203.864371 724.437004 -0.000000 0.384408 0.247752 -0.415531
7.580000 61.328276 37.105597 -0.000000 0.125476 0.390747 -0.167549 -183.478522 727.072634 -0.000000 0.380346 0.237596 -0.415521
7.585000 62.374777 37.552169 -0.000000 0.130360 0.400835 -0.168064 -161.762103 729.775383 -0.000000 0.375706 0.227874 -0.415375
7.590000 62.280290 37.283117 -0.000000 0.135905 0.410651 -0.168501 -138.534819 732.637609 -0.000000 0.370509 0.218433 -0.415247
7.595000 61.061257 36.533494 -0.000000 0.142099 0.420214 -0.169014 -114.055485 735.541039 -0.000000 0.364812 0.209237 -0.415084
7.600000 58.766633 35.584716 -0.000000 0.148639 0.429247 -0.169601 -89.627747 738.146223 -0.000000 0.358546 0.200393 -0.414904
7.605000 55.554032 34.564080 -0.000000 0.155817 0.437830 -0.169768 -65.505988 740.310560 -0.000000 0.351866 0.192158 -0.414667
7.610000 51.632520 33.471108 -0.000000 0.163777 0.445857 -0.170401 -41.059194 741.927974 -0.000000 0.344685 0.184302 -0.414463
7.615000 47.081261 32.415384 -0.000000 0.171702 0.453498 -0.170869 -17.955201 742.682416 -0.000000 0.337050 0.176971 -0.414294
7.620000 42.088569 31.220362 -0.000000 0.180682 0.460597 -0.171173 5.524250 742.292053 -0.000000 0.329046 0.170249 -0.414037
7.625000 36.614726 29.927864 -0.000000 0.189354 0.466576 -0.171477 26.485642 740.213269 -0.000000 0.320682 0.164010 -0.413850
7.630000 30.868800 28.186477 -0.000000 0.198847 0.472149 -0.171900 48.037050 735.674427 -0.000000 0.312063 0.158273 -0.413606
7.635000 24.874040 25.845592 -0.000000 0.208561 0.477152 -0.172343 68.857855 727.892753 -0.000000 0.303163 0.153288 -0.413476
7.640000 18.722158 22.648740 -0.000000 0.218789 0.481381 -0.172363 89.642560 715.975902 -0.000000 0.294048 0.148852 -0.413294
7.645000 12.455581 18.404359 -0.000000 0.229213 0.484844 -0.172557 109.828607 699.156731 -0.000000 0.284711 0.145054 -0.413142
7.650000 6.131520 12.950969 -0.000000 0.239886 0.487728 -0.172700 129.313328 676.705307 -0.000000 0.275229 0.141989 -0.413068
7.655000 -0.191929 6.230903 -0.000000 0.250701 0.489925 -0.172568 147.427219 648.095804 -0.000000 0.265681 0.139543 -0.413035
7.660000 -6.382600 -1.663910 -0.000000 0.261469 0.491548 -0.172620 163.582552 612.933542 -0.000000 0.255968 0.137620 -0.413176
7.665000 -12.221627 -10.437107 -0.000000 0.272263 0.492327 -0.172517 176.647265 571.197055 -0.000000 0.246457 0.136437 -0.413259
7.670000 -17.464905 -19.538477 -0.000000 0.282800 0.492560 -0.172322 185.842769 523.174316 -0.000000 0.236994 0.136089 -0.413287
7.675000 -21.907876 -28.158599 -0.000000 0.292987 0.492068 -0.172057 190.153883 469.746020 -0.000000 0.227843 0.136404 -0.413294
7.680000 -25.433467 -35.253230 -0.000000 0.302700 0.491448 -0.171607 189.050197 412.195266 -0.000000 0.219018 0.137327 -0.413403
7.685000 -28.096513 -39.593434 -0.000000 0.311991 0.490047 -0.171077 182.871056 351.936807 -0.000000 0.210554 0.138876 -0.413502
7.690000 -30.090707 -39.899015 -0.000000 0.320720 0.488040 -0.170533 171.969023 290.769479 -0.000000 0.202532 0.141211 -0.413496
7.695000 -31.809416 -34.883845 -0.000000 0.328920 0.485589 -0.170091 157.275139 230.493594 -0.000000 0.194901 0.144339 -0.413380
7.700000 -33.802855 -23.371568 -0.000000 0.336592 0.482546 -0.169693 139.859141 173.003330 -0.000000 0.187716 0.147990 -0.413174
7.705000 -36.763415 -4.327749 -0.000000 0.343699 0.478850 -0.169373 121.088235 119.940060 -0.000000 0.180954 0.152295 -0.412921
7.710000 -41.411569 23.065334 -0.000000 0.350118 0.474562 -0.168729 102.282314 72.583816 -0.000000 0.174479 0.157151 -0.412977
7.715000 -48.374023 59.357076 -0.000000 0.356044 0.469522 -0.167941 84.653489 31.595725 -0.000000 0.168204 0.162586 -0.412925
7.720000 -58.001750 104.575986 -0.000000 0.361311 0.463141 -0.166791 68.940043 -2.740189 -0.000000 0.162048 0.168751 -0.412588
7.725000 -70.707833 157.789736 -0.000000 0.365795 0.456409 -0.165878 55.489271 -30.252686 -0.000000 0.156092 0.175457 -0.412201
7.730000 -86.370017 217.347501 -0.000000 0.370230 0.449593 -0.165676 44.392200 -51.225899 -0.000000 0.150394 0.182722 -0.411758
7.735000 -104.395253 280.863592 -0.000000 0.374418 0.441697 -0.165552 35.540271 -65.990106 -0.000000 0.145063 0.190313 -0.411474
7.740000 -124.351781 345.356718 -0.000000 0.378325 0.433308 -0.165336 28.923989 -74.937401 -0.000000 0.140146 0.198248 -0.411213
7.745000 -144.960174 408.156247 -0.000000 0.381875 0.424391 -0.165141 24.358898 -78.709891 -0.000000 0.135181 0.206712 -0.410680
7.750000 -165.721450 466.810872 -0.000000 0.385594 0.415092 -0.165416 21.806941 -77.998543 -0.000000 0.130694 0.215418 -0.410532
7.755000 -185.742355 519.710236 -0.000000 0.389000 0.405137 -0.165509 21.104329 -73.583549 -0.000000 0.126856 0.224616 -0.410486
7.760000 -204.172174 565.708392 -0.000000 0.392338 0.394907 -0.165751 22.058113 -66.223047 -0.000000 0.123345 0.234046 -0.410382
7.765000 -221.857539 603.294303 -0.000000 0.395025 0.385142 -0.165686 24.623520 -56.529322 -0.000000 0.120322 0.243740 -0.410394
7.770000 -235.015320 633.077344 -0.000000 0.397480 0.374447 -0.165621 28.295826 -45.196979 -0.000000 0.117818 0.253706 -0.410418
7.775000 -244.253155 654.787706 -0.000000 0.399608 0.363471 -0.165371 33.082451 -32.676768 -0.000000 0.115932 0.263903 -0.410541
7.780000 -250.148787 668.875380 -0.000000 0.401319 0.352466 -0.165060 38.932097 -19.357354 -0.000000 0.114368 0.274156 -0.410446
7.785000 -252.347500 676.663472 -0.000000 0.402532 0.341439 -0.164882 45.777891 -5.640089 -0.000000 0.113391 0.284803 -0.410519
7.790000 -251.828313 679.263490 -0.000000 0.403288 0.330273 -0.164932 53.568248 8.145395 -0.000000 0.112988 0.295372 -0.410527
7.795000 -249.270279 677.980087 -0.000000 0.403546 0.319362 -0.164817 62.128565 21.597233 -0.000000 0.113056 0.306071 -0.410528
7.800000 -244.375250 674.406624 -0.000000 0.403197 0.308506 -0.164718 71.229969 34.133245 -0.000000 0.113714 0.316906 -0.410611
7.805000 -236.342153 670.147504 -0.000000 0.402314 0.297483 -0.164473 80.639306 45.048824 -0.000000 0.114979 0.328013 -0.410519
7.810000 -227.503880 665.510802 -0.000000 0.400700 0.286733 -0.164293 89.812659 54.076232 -0.000000 0.116713 0.338852 -0.410417
